<?xml version="1.0" encoding="UTF-8"?>
<svg xmlns="http://www.w3.org/2000/svg" xmlns:xlink="http://www.w3.org/1999/xlink" viewBox="0 0 215.43 424.45">
  <defs>
    <style>
      .cls-1 {
        isolation: isolate;
      }

      .cls-2 {
        filter: url(#drop-shadow-1);
      }

      .cls-3 {
        fill: #de8e49;
        mix-blend-mode: multiply;
        opacity: .2;
      }

      .cls-4 {
        fill: url(#Degradado_sin_nombre_65);
      }
    </style>
    <filter id="drop-shadow-1" filterUnits="userSpaceOnUse">
      <feOffset dx="5" dy="5"/>
      <feGaussianBlur result="blur" stdDeviation="5"/>
      <feFlood flood-color="#010101" flood-opacity=".25"/>
      <feComposite in2="blur" operator="in"/>
      <feComposite in="SourceGraphic"/>
    </filter>
    <linearGradient id="Degradado_sin_nombre_65" data-name="Degradado sin nombre 65" x1="0" y1="212.22" x2="215.43" y2="212.22" gradientUnits="userSpaceOnUse">
      <stop offset="0" stop-color="#009755"/>
      <stop offset="0" stop-color="#039653"/>
      <stop offset=".07" stop-color="#1d9346"/>
      <stop offset=".14" stop-color="#30913e"/>
      <stop offset=".21" stop-color="#3c9038"/>
      <stop offset=".28" stop-color="#409037"/>
      <stop offset=".67" stop-color="#f18f34"/>
      <stop offset=".89" stop-color="#e95f32"/>
      <stop offset="1" stop-color="#e3312d"/>
    </linearGradient>
  </defs>
  <g class="cls-1">
    <g id="Capa_1" data-name="Capa 1">
      <g class="cls-2">
        <path class="cls-4" d="M215.43,409.26c0,8.39-6.7,15.19-14.97,15.19H14.97c-8.27,0-14.97-6.8-14.97-15.19V15.19C0,6.8,6.7,0,14.97,0H200.46c8.27,0,14.97,6.8,14.97,15.19V409.26Z"/>
        <g>
          <path class="cls-3" d="M152.6,424.45h47.86c8.27,0,14.97-6.8,14.97-15.19v-134.2c-.67,.88-1.4,1.74-2.17,2.56-8.75,9.28-21.73,8.07-31.77,14.74-8.79,5.84-9.25,14.18-8.35,23.92,.59,6.32,.27,12.02-3.53,17.32-3.86,5.37-10.55,8-14.76,13.05-6.74,8.08-4.03,16.93,3.13,23.5,3.77,3.46,8.44,6.31,9.82,11.61,1.99,7.69-5.21,16.44-9.01,22.42-4.06,6.38-6.05,13.39-6.19,20.27Z"/>
          <path class="cls-3" d="M76.97,16.3c-13.67-3.27-28.66,1.44-41.35,6.38C23.25,27.49,11.46,33.76,0,40.54V168.91c9.06,3.05,16.08,9.48,19.84,18.54,4.33,10.45,4.25,22.52,3.66,33.63-.4,7.39-1.01,14.87-3.14,21.97-2.2,7.35-5.93,14.39-6.85,22.09-1.29,10.81,3.51,22.21,13.51,27.07,8.51,4.14,17.65-.9,20.45-9.44,1.52-4.64,1.44-9.87,1.8-14.7,.44-6.07,2.24-10.97,5.68-15.93,5.89-8.48,14.67-14.64,22.07-21.65,6.56-6.22,12.22-13.51,13.77-22.68,1.83-10.78-2.86-21.01-9.49-29.11-4.13-5.04-8.95-9.43-12.84-14.68-6.08-8.2-6.66-17.15-3.52-26.68,4.85-14.71,15.01-27.15,23.46-39.82,5.69-8.54,10.71-17.55,13.33-27.56,2.36-9.05,1.48-18.56-.69-27.54-3.08-12.75-11.16-23.03-24.05-26.11Z"/>
        </g>
      </g>
    </g>
  </g>
</svg>